# xmcd
#
# Track frame offsets:
#	150
#	21011
#	36995
#	56191
#	73948
#	90249
#	103118
#	117240
#	135168
#	151009
#	165363
#	175173
#	195752
#
# Disc length: 2851 seconds
#
# Revision: 0
# Processed by: cddbd v1.5.2PL0 Copyright (c) Steve Scherf et al.
# Submitted via: EasyCDDAExtractor 16.0.8.2
#
DISCID=990b210d
DTITLE=Παπάζογλου Νίκος - Τα μεγάλα τραγούδια-Ν. Παπάζογλου 2
DYEAR=2015
DGENRE=Έντεχνη λαϊκή
TTITLE0=Ένα κι ένα [Ν. Παπάζογλου-Μ. Ρασούλης]
TTITLE1=Ο μοναχός άνθρωπος [Ν. Παπάζογλου-Λάζ. Ανδρέου]
TTITLE2=Στη ρωγμή του χρόνου [Ν. Ξυδάκης-Μ. Ρασούλης]
TTITLE3=Φύσηξε ο Βαρδάρης]
TTITLE4=Καλημέρα [Ν. Παπάζογλου-Τάκης Σιμώτας]
TTITLE5=Μ' ένα τρίχορδο [Ν. Παπάζογλου-Στέλιος Ξυνιάς]
TTITLE6=Δεν είμαι ποιητής [Ν. Παπάζογλου-Λάζ. Ανδρέου]
TTITLE7=Της Χιώτισσας [Ν. Παπάζογλου]
TTITLE8=Για το χαμόγελό σου [Ν. Παπάζογλου]
TTITLE9=Σάββατο [Ν. Παπάζογλου-Μιχ. Πασιαρδής]
TTITLE10=Όμως εγώ [Ν. Παπάζογλου-Λάζ. Ανδρέου]
TTITLE11=Πότε Βούδας, πότε Κούδας [Π. Βαγιόπουλος-Μ. Ρασούλης]
TTITLE12=Αχ, Ελλάδα [Βάσω Αλαγιάννη-Μ. Ρασούλης]
EXTD=
EXTT0=
EXTT1=
EXTT2=
EXTT3=
EXTT4=
EXTT5=
EXTT6=
EXTT7=
EXTT8=
EXTT9=
EXTT10=
EXTT11=
EXTT12=
PLAYORDER=
